<?xml version="1.0" encoding="iso-8859-1"?>
<!-- Uploaded to: SVG Repo, www.svgrepo.com, Generator: SVG Repo Mixer Tools -->
<svg fill="#000000" height="800px" width="800px" version="1.1" id="Layer_1" xmlns="http://www.w3.org/2000/svg" xmlns:xlink="http://www.w3.org/1999/xlink" 
	 viewBox="0 0 486.345 486.345" xml:space="preserve">
<g>
	<g>
		<path d="M275.673,319.856V166.454c33.117-13.222,55-45.211,55-81.249c0-35.858-21.47-67.675-54.698-81.057L265.673,0v81.191
			l-22.803,15.203l-27.197-15.541V1.293L204.88,6.567c-30.352,14.834-49.207,44.966-49.207,78.638c0,36.038,21.883,68.027,55,81.249
			v153.402c-33.117,13.222-55,45.211-55,81.249c0,35.745,21.462,67.559,54.678,81.049l10.322,4.191v-82.024l22.793-14.512
			l27.207,14.847v80.262l10.793-5.274c30.352-14.834,49.207-44.928,49.207-78.538C330.673,365.067,308.79,333.078,275.673,319.856z
			 M285.673,459.717v-63.963l-35-19.1v-36.449h-15v36.784l-30,19.099v67.006c-21.575-12.997-35-36.266-35-61.989
			c0-31.384,20.031-59.063,49.845-68.876l5.155-1.697V155.778l-5.155-1.697c-29.813-9.813-49.845-37.492-49.845-68.876
			c0-23.654,11.241-45.205,30-58.709v63.062l35,20v35.647h15v-35.986l30-20V23.181c21.573,12.932,35,36.214,35,62.024
			c0,31.384-20.031,59.063-49.845,68.876l-5.155,1.697v174.754l5.155,1.697c29.813,9.813,49.845,37.492,49.845,68.876
			C315.673,424.708,304.432,446.223,285.673,459.717z"/>
	</g>
</g>
</svg>